<mxfile host="Electron" modified="2023-08-08T00:56:12.646Z" agent="Mozilla/5.0 (X11; Linux x86_64) AppleWebKit/537.36 (KHTML, like Gecko) draw.io/21.6.5 Chrome/114.0.5735.243 Electron/25.3.1 Safari/537.36" etag="ZHuYi65BOm6XVeZj8hc_" version="21.6.5" type="device">
  <diagram name="Página-1" id="GOhYo_B30l1Q9ZcSKZSn">
    <mxGraphModel dx="2074" dy="875" grid="1" gridSize="10" guides="1" tooltips="1" connect="1" arrows="1" fold="1" page="1" pageScale="1" pageWidth="827" pageHeight="1169" math="0" shadow="0">
      <root>
        <mxCell id="0" />
        <mxCell id="1" parent="0" />
        <mxCell id="ZxSoWGxs9Hwsnnc6gp1z-12" style="edgeStyle=orthogonalEdgeStyle;rounded=0;orthogonalLoop=1;jettySize=auto;html=1;" parent="1" source="w4EoW0pWuBNJUYnRXL-0-1" target="ZxSoWGxs9Hwsnnc6gp1z-9" edge="1">
          <mxGeometry relative="1" as="geometry" />
        </mxCell>
        <mxCell id="w4EoW0pWuBNJUYnRXL-0-1" value="Estabelecimento" style="sketch=0;html=1;dashed=0;whitespace=wrap;fillColor=#2875E2;strokeColor=#ffffff;points=[[0.005,0.63,0],[0.1,0.2,0],[0.9,0.2,0],[0.5,0,0],[0.995,0.63,0],[0.72,0.99,0],[0.5,1,0],[0.28,0.99,0]];verticalLabelPosition=bottom;align=center;verticalAlign=top;shape=mxgraph.kubernetes.icon;prIcon=api" parent="1" vertex="1">
          <mxGeometry x="610" y="200" width="50" height="48" as="geometry" />
        </mxCell>
        <mxCell id="ZxSoWGxs9Hwsnnc6gp1z-13" style="edgeStyle=orthogonalEdgeStyle;rounded=0;orthogonalLoop=1;jettySize=auto;html=1;" parent="1" source="w4EoW0pWuBNJUYnRXL-0-2" target="ZxSoWGxs9Hwsnnc6gp1z-9" edge="1">
          <mxGeometry relative="1" as="geometry" />
        </mxCell>
        <mxCell id="w4EoW0pWuBNJUYnRXL-0-2" value="Device" style="sketch=0;html=1;dashed=0;whitespace=wrap;fillColor=#2875E2;strokeColor=#ffffff;points=[[0.005,0.63,0],[0.1,0.2,0],[0.9,0.2,0],[0.5,0,0],[0.995,0.63,0],[0.72,0.99,0],[0.5,1,0],[0.28,0.99,0]];verticalLabelPosition=bottom;align=center;verticalAlign=top;shape=mxgraph.kubernetes.icon;prIcon=api" parent="1" vertex="1">
          <mxGeometry x="610" y="280" width="50" height="48" as="geometry" />
        </mxCell>
        <mxCell id="ZxSoWGxs9Hwsnnc6gp1z-16" style="edgeStyle=orthogonalEdgeStyle;rounded=0;orthogonalLoop=1;jettySize=auto;html=1;" parent="1" source="w4EoW0pWuBNJUYnRXL-0-3" target="ZxSoWGxs9Hwsnnc6gp1z-14" edge="1">
          <mxGeometry relative="1" as="geometry" />
        </mxCell>
        <mxCell id="w4EoW0pWuBNJUYnRXL-0-3" value="Pagamento" style="sketch=0;html=1;dashed=0;whitespace=wrap;fillColor=#2875E2;strokeColor=#ffffff;points=[[0.005,0.63,0],[0.1,0.2,0],[0.9,0.2,0],[0.5,0,0],[0.995,0.63,0],[0.72,0.99,0],[0.5,1,0],[0.28,0.99,0]];verticalLabelPosition=bottom;align=center;verticalAlign=top;shape=mxgraph.kubernetes.icon;prIcon=api" parent="1" vertex="1">
          <mxGeometry x="610" y="544.5" width="50" height="48" as="geometry" />
        </mxCell>
        <mxCell id="ZxSoWGxs9Hwsnnc6gp1z-17" style="edgeStyle=orthogonalEdgeStyle;rounded=0;orthogonalLoop=1;jettySize=auto;html=1;" parent="1" source="w4EoW0pWuBNJUYnRXL-0-4" target="ZxSoWGxs9Hwsnnc6gp1z-14" edge="1">
          <mxGeometry relative="1" as="geometry" />
        </mxCell>
        <mxCell id="w4EoW0pWuBNJUYnRXL-0-4" value="Confirmação Pagamento" style="sketch=0;html=1;dashed=0;whitespace=wrap;fillColor=#2875E2;strokeColor=#ffffff;points=[[0.005,0.63,0],[0.1,0.2,0],[0.9,0.2,0],[0.5,0,0],[0.995,0.63,0],[0.72,0.99,0],[0.5,1,0],[0.28,0.99,0]];verticalLabelPosition=bottom;align=center;verticalAlign=top;shape=mxgraph.kubernetes.icon;prIcon=api" parent="1" vertex="1">
          <mxGeometry x="610" y="623.5" width="50" height="48" as="geometry" />
        </mxCell>
        <mxCell id="ZxSoWGxs9Hwsnnc6gp1z-18" style="edgeStyle=orthogonalEdgeStyle;rounded=0;orthogonalLoop=1;jettySize=auto;html=1;" parent="1" source="w4EoW0pWuBNJUYnRXL-0-5" target="ZxSoWGxs9Hwsnnc6gp1z-14" edge="1">
          <mxGeometry relative="1" as="geometry" />
        </mxCell>
        <mxCell id="w4EoW0pWuBNJUYnRXL-0-5" value="Cancelamento Pagamento" style="sketch=0;html=1;dashed=0;whitespace=wrap;fillColor=#2875E2;strokeColor=#ffffff;points=[[0.005,0.63,0],[0.1,0.2,0],[0.9,0.2,0],[0.5,0,0],[0.995,0.63,0],[0.72,0.99,0],[0.5,1,0],[0.28,0.99,0]];verticalLabelPosition=bottom;align=center;verticalAlign=top;shape=mxgraph.kubernetes.icon;prIcon=api" parent="1" vertex="1">
          <mxGeometry x="610" y="703.5" width="50" height="48" as="geometry" />
        </mxCell>
        <mxCell id="ZxSoWGxs9Hwsnnc6gp1z-19" style="edgeStyle=orthogonalEdgeStyle;rounded=0;orthogonalLoop=1;jettySize=auto;html=1;" parent="1" source="w4EoW0pWuBNJUYnRXL-0-6" target="ZxSoWGxs9Hwsnnc6gp1z-14" edge="1">
          <mxGeometry relative="1" as="geometry" />
        </mxCell>
        <mxCell id="w4EoW0pWuBNJUYnRXL-0-6" value="Desfazimento Pagamento" style="sketch=0;html=1;dashed=0;whitespace=wrap;fillColor=#2875E2;strokeColor=#ffffff;points=[[0.005,0.63,0],[0.1,0.2,0],[0.9,0.2,0],[0.5,0,0],[0.995,0.63,0],[0.72,0.99,0],[0.5,1,0],[0.28,0.99,0]];verticalLabelPosition=bottom;align=center;verticalAlign=top;shape=mxgraph.kubernetes.icon;prIcon=api" parent="1" vertex="1">
          <mxGeometry x="610" y="783.5" width="50" height="48" as="geometry" />
        </mxCell>
        <mxCell id="T0y2XguxjQJqHuOQxVgw-3" style="edgeStyle=orthogonalEdgeStyle;rounded=0;orthogonalLoop=1;jettySize=auto;html=1;" parent="1" source="w4EoW0pWuBNJUYnRXL-0-34" target="T0y2XguxjQJqHuOQxVgw-2" edge="1">
          <mxGeometry relative="1" as="geometry" />
        </mxCell>
        <mxCell id="w4EoW0pWuBNJUYnRXL-0-34" value="Pagamentos" style="sketch=0;html=1;dashed=0;whitespace=wrap;fillColor=#2875E2;strokeColor=#ffffff;points=[[0.005,0.63,0],[0.1,0.2,0],[0.9,0.2,0],[0.5,0,0],[0.995,0.63,0],[0.72,0.99,0],[0.5,1,0],[0.28,0.99,0]];verticalLabelPosition=bottom;align=center;verticalAlign=top;shape=mxgraph.kubernetes.icon;prIcon=api" parent="1" vertex="1">
          <mxGeometry x="610" y="991" width="50" height="48" as="geometry" />
        </mxCell>
        <mxCell id="ZxSoWGxs9Hwsnnc6gp1z-2" style="edgeStyle=orthogonalEdgeStyle;rounded=0;orthogonalLoop=1;jettySize=auto;html=1;entryX=0.005;entryY=0.63;entryDx=0;entryDy=0;entryPerimeter=0;" parent="1" source="ZxSoWGxs9Hwsnnc6gp1z-1" target="w4EoW0pWuBNJUYnRXL-0-1" edge="1">
          <mxGeometry relative="1" as="geometry" />
        </mxCell>
        <mxCell id="ZxSoWGxs9Hwsnnc6gp1z-3" style="edgeStyle=orthogonalEdgeStyle;rounded=0;orthogonalLoop=1;jettySize=auto;html=1;entryX=0.005;entryY=0.63;entryDx=0;entryDy=0;entryPerimeter=0;" parent="1" source="ZxSoWGxs9Hwsnnc6gp1z-1" target="w4EoW0pWuBNJUYnRXL-0-2" edge="1">
          <mxGeometry relative="1" as="geometry" />
        </mxCell>
        <mxCell id="ZxSoWGxs9Hwsnnc6gp1z-4" style="edgeStyle=orthogonalEdgeStyle;rounded=0;orthogonalLoop=1;jettySize=auto;html=1;entryX=0.005;entryY=0.63;entryDx=0;entryDy=0;entryPerimeter=0;" parent="1" source="ZxSoWGxs9Hwsnnc6gp1z-1" target="w4EoW0pWuBNJUYnRXL-0-34" edge="1">
          <mxGeometry relative="1" as="geometry" />
        </mxCell>
        <mxCell id="ZxSoWGxs9Hwsnnc6gp1z-5" style="edgeStyle=orthogonalEdgeStyle;rounded=0;orthogonalLoop=1;jettySize=auto;html=1;entryX=0.005;entryY=0.63;entryDx=0;entryDy=0;entryPerimeter=0;" parent="1" source="ZxSoWGxs9Hwsnnc6gp1z-1" target="w4EoW0pWuBNJUYnRXL-0-3" edge="1">
          <mxGeometry relative="1" as="geometry" />
        </mxCell>
        <mxCell id="ZxSoWGxs9Hwsnnc6gp1z-6" style="edgeStyle=orthogonalEdgeStyle;rounded=0;orthogonalLoop=1;jettySize=auto;html=1;entryX=0.005;entryY=0.63;entryDx=0;entryDy=0;entryPerimeter=0;" parent="1" source="ZxSoWGxs9Hwsnnc6gp1z-1" target="w4EoW0pWuBNJUYnRXL-0-4" edge="1">
          <mxGeometry relative="1" as="geometry" />
        </mxCell>
        <mxCell id="ZxSoWGxs9Hwsnnc6gp1z-7" style="edgeStyle=orthogonalEdgeStyle;rounded=0;orthogonalLoop=1;jettySize=auto;html=1;entryX=0.005;entryY=0.63;entryDx=0;entryDy=0;entryPerimeter=0;" parent="1" source="ZxSoWGxs9Hwsnnc6gp1z-1" target="w4EoW0pWuBNJUYnRXL-0-5" edge="1">
          <mxGeometry relative="1" as="geometry" />
        </mxCell>
        <mxCell id="ZxSoWGxs9Hwsnnc6gp1z-8" style="edgeStyle=orthogonalEdgeStyle;rounded=0;orthogonalLoop=1;jettySize=auto;html=1;entryX=0.005;entryY=0.63;entryDx=0;entryDy=0;entryPerimeter=0;" parent="1" source="ZxSoWGxs9Hwsnnc6gp1z-1" target="w4EoW0pWuBNJUYnRXL-0-6" edge="1">
          <mxGeometry relative="1" as="geometry" />
        </mxCell>
        <mxCell id="ZxSoWGxs9Hwsnnc6gp1z-1" value="Gateway" style="outlineConnect=0;dashed=0;verticalLabelPosition=bottom;verticalAlign=top;align=center;html=1;shape=mxgraph.aws3.api_gateway;fillColor=#D9A741;gradientColor=none;" parent="1" vertex="1">
          <mxGeometry x="200" y="544.5" width="76.5" height="93" as="geometry" />
        </mxCell>
        <mxCell id="T0y2XguxjQJqHuOQxVgw-14" style="edgeStyle=orthogonalEdgeStyle;rounded=0;orthogonalLoop=1;jettySize=auto;html=1;" parent="1" source="ZxSoWGxs9Hwsnnc6gp1z-9" target="T0y2XguxjQJqHuOQxVgw-13" edge="1">
          <mxGeometry relative="1" as="geometry" />
        </mxCell>
        <mxCell id="T0y2XguxjQJqHuOQxVgw-28" style="edgeStyle=orthogonalEdgeStyle;rounded=0;orthogonalLoop=1;jettySize=auto;html=1;" parent="1" source="ZxSoWGxs9Hwsnnc6gp1z-9" target="T0y2XguxjQJqHuOQxVgw-27" edge="1">
          <mxGeometry relative="1" as="geometry">
            <Array as="points">
              <mxPoint x="970" y="160" />
              <mxPoint x="899" y="160" />
            </Array>
          </mxGeometry>
        </mxCell>
        <mxCell id="VQTUx2iocI8o-VVZl_k7-2" style="edgeStyle=orthogonalEdgeStyle;rounded=0;orthogonalLoop=1;jettySize=auto;html=1;" parent="1" source="ZxSoWGxs9Hwsnnc6gp1z-9" target="VQTUx2iocI8o-VVZl_k7-1" edge="1">
          <mxGeometry relative="1" as="geometry">
            <Array as="points">
              <mxPoint x="970" y="160" />
              <mxPoint x="1079" y="160" />
            </Array>
          </mxGeometry>
        </mxCell>
        <mxCell id="ZxSoWGxs9Hwsnnc6gp1z-9" value="Cadastro" style="html=1;whiteSpace=wrap;strokeColor=none;fillColor=#0079D6;labelPosition=center;verticalLabelPosition=middle;verticalAlign=top;align=center;fontSize=12;outlineConnect=0;spacingTop=-6;fontColor=#FFFFFF;sketch=0;shape=mxgraph.sitemap.services;" parent="1" vertex="1">
          <mxGeometry x="910" y="230" width="120" height="70" as="geometry" />
        </mxCell>
        <mxCell id="T0y2XguxjQJqHuOQxVgw-4" style="edgeStyle=orthogonalEdgeStyle;rounded=0;orthogonalLoop=1;jettySize=auto;html=1;" parent="1" source="ZxSoWGxs9Hwsnnc6gp1z-14" target="T0y2XguxjQJqHuOQxVgw-1" edge="1">
          <mxGeometry relative="1" as="geometry" />
        </mxCell>
        <mxCell id="T0y2XguxjQJqHuOQxVgw-16" style="edgeStyle=orthogonalEdgeStyle;rounded=0;orthogonalLoop=1;jettySize=auto;html=1;" parent="1" source="ZxSoWGxs9Hwsnnc6gp1z-14" target="T0y2XguxjQJqHuOQxVgw-15" edge="1">
          <mxGeometry relative="1" as="geometry" />
        </mxCell>
        <mxCell id="VQTUx2iocI8o-VVZl_k7-4" style="edgeStyle=orthogonalEdgeStyle;rounded=0;orthogonalLoop=1;jettySize=auto;html=1;" parent="1" source="ZxSoWGxs9Hwsnnc6gp1z-14" target="VQTUx2iocI8o-VVZl_k7-3" edge="1">
          <mxGeometry relative="1" as="geometry" />
        </mxCell>
        <mxCell id="VQTUx2iocI8o-VVZl_k7-7" style="edgeStyle=orthogonalEdgeStyle;rounded=0;orthogonalLoop=1;jettySize=auto;html=1;entryX=0;entryY=0.5;entryDx=0;entryDy=0;entryPerimeter=0;" parent="1" source="ZxSoWGxs9Hwsnnc6gp1z-14" target="T0y2XguxjQJqHuOQxVgw-23" edge="1">
          <mxGeometry relative="1" as="geometry" />
        </mxCell>
        <mxCell id="ZxSoWGxs9Hwsnnc6gp1z-14" value="Operações Pagamentos" style="html=1;whiteSpace=wrap;strokeColor=none;fillColor=#0079D6;labelPosition=center;verticalLabelPosition=middle;verticalAlign=top;align=center;fontSize=12;outlineConnect=0;spacingTop=-6;fontColor=#FFFFFF;sketch=0;shape=mxgraph.sitemap.services;" parent="1" vertex="1">
          <mxGeometry x="900" y="643.5" width="140" height="90" as="geometry" />
        </mxCell>
        <mxCell id="T0y2XguxjQJqHuOQxVgw-6" style="edgeStyle=orthogonalEdgeStyle;rounded=0;orthogonalLoop=1;jettySize=auto;html=1;" parent="1" source="T0y2XguxjQJqHuOQxVgw-1" target="T0y2XguxjQJqHuOQxVgw-5" edge="1">
          <mxGeometry relative="1" as="geometry" />
        </mxCell>
        <mxCell id="T0y2XguxjQJqHuOQxVgw-1" value="operações pagamento" style="sketch=0;points=[[0,0,0],[0.25,0,0],[0.5,0,0],[0.75,0,0],[1,0,0],[0,1,0],[0.25,1,0],[0.5,1,0],[0.75,1,0],[1,1,0],[0,0.25,0],[0,0.5,0],[0,0.75,0],[1,0.25,0],[1,0.5,0],[1,0.75,0]];outlineConnect=0;fontColor=#232F3E;gradientColor=#945DF2;gradientDirection=north;fillColor=#5A30B5;strokeColor=#ffffff;dashed=0;verticalLabelPosition=bottom;verticalAlign=top;align=center;html=1;fontSize=12;fontStyle=0;aspect=fixed;shape=mxgraph.aws4.resourceIcon;resIcon=mxgraph.aws4.managed_streaming_for_kafka;" parent="1" vertex="1">
          <mxGeometry x="1180" y="575.5" width="78" height="78" as="geometry" />
        </mxCell>
        <mxCell id="R2QWuk8qWXOBoiMcdsAV-1" style="edgeStyle=orthogonalEdgeStyle;rounded=0;orthogonalLoop=1;jettySize=auto;html=1;" edge="1" parent="1" source="T0y2XguxjQJqHuOQxVgw-2" target="T0y2XguxjQJqHuOQxVgw-8">
          <mxGeometry relative="1" as="geometry" />
        </mxCell>
        <mxCell id="T0y2XguxjQJqHuOQxVgw-2" value="Pagamentos" style="html=1;whiteSpace=wrap;strokeColor=none;fillColor=#0079D6;labelPosition=center;verticalLabelPosition=middle;verticalAlign=top;align=center;fontSize=12;outlineConnect=0;spacingTop=-6;fontColor=#FFFFFF;sketch=0;shape=mxgraph.sitemap.services;" parent="1" vertex="1">
          <mxGeometry x="910" y="980" width="120" height="70" as="geometry" />
        </mxCell>
        <mxCell id="T0y2XguxjQJqHuOQxVgw-9" style="edgeStyle=orthogonalEdgeStyle;rounded=0;orthogonalLoop=1;jettySize=auto;html=1;" parent="1" source="T0y2XguxjQJqHuOQxVgw-5" target="T0y2XguxjQJqHuOQxVgw-8" edge="1">
          <mxGeometry relative="1" as="geometry" />
        </mxCell>
        <mxCell id="T0y2XguxjQJqHuOQxVgw-26" style="edgeStyle=orthogonalEdgeStyle;rounded=0;orthogonalLoop=1;jettySize=auto;html=1;" parent="1" source="T0y2XguxjQJqHuOQxVgw-5" target="T0y2XguxjQJqHuOQxVgw-25" edge="1">
          <mxGeometry relative="1" as="geometry" />
        </mxCell>
        <mxCell id="VQTUx2iocI8o-VVZl_k7-8" style="edgeStyle=orthogonalEdgeStyle;rounded=0;orthogonalLoop=1;jettySize=auto;html=1;entryX=1;entryY=0.5;entryDx=0;entryDy=0;entryPerimeter=0;" parent="1" source="T0y2XguxjQJqHuOQxVgw-5" target="T0y2XguxjQJqHuOQxVgw-23" edge="1">
          <mxGeometry relative="1" as="geometry">
            <Array as="points">
              <mxPoint x="1440" y="437" />
            </Array>
          </mxGeometry>
        </mxCell>
        <mxCell id="T0y2XguxjQJqHuOQxVgw-5" value="Motor Pagamento" style="html=1;whiteSpace=wrap;strokeColor=none;fillColor=#0079D6;labelPosition=center;verticalLabelPosition=middle;verticalAlign=top;align=center;fontSize=12;outlineConnect=0;spacingTop=-6;fontColor=#FFFFFF;sketch=0;shape=mxgraph.sitemap.services;" parent="1" vertex="1">
          <mxGeometry x="1390" y="653.5" width="120" height="70" as="geometry" />
        </mxCell>
        <mxCell id="T0y2XguxjQJqHuOQxVgw-8" value="Dados Pagamentos" style="image;html=1;image=img/lib/clip_art/computers/Database_128x128.png" parent="1" vertex="1">
          <mxGeometry x="1410" y="975" width="80" height="80" as="geometry" />
        </mxCell>
        <mxCell id="T0y2XguxjQJqHuOQxVgw-13" value="Dados Cadastro" style="image;html=1;image=img/lib/clip_art/computers/Database_128x128.png" parent="1" vertex="1">
          <mxGeometry x="1201" y="225" width="80" height="80" as="geometry" />
        </mxCell>
        <mxCell id="T0y2XguxjQJqHuOQxVgw-21" style="edgeStyle=orthogonalEdgeStyle;rounded=0;orthogonalLoop=1;jettySize=auto;html=1;" parent="1" source="T0y2XguxjQJqHuOQxVgw-15" target="T0y2XguxjQJqHuOQxVgw-18" edge="1">
          <mxGeometry relative="1" as="geometry" />
        </mxCell>
        <mxCell id="T0y2XguxjQJqHuOQxVgw-15" value="Cache Cadastro" style="image;sketch=0;aspect=fixed;html=1;points=[];align=center;fontSize=12;image=img/lib/mscae/Cache_Redis_Product.svg;" parent="1" vertex="1">
          <mxGeometry x="945" y="450" width="50" height="42" as="geometry" />
        </mxCell>
        <mxCell id="T0y2XguxjQJqHuOQxVgw-22" style="edgeStyle=orthogonalEdgeStyle;rounded=0;orthogonalLoop=1;jettySize=auto;html=1;" parent="1" source="T0y2XguxjQJqHuOQxVgw-18" target="ZxSoWGxs9Hwsnnc6gp1z-9" edge="1">
          <mxGeometry relative="1" as="geometry" />
        </mxCell>
        <mxCell id="T0y2XguxjQJqHuOQxVgw-18" value="Consulta Cadastro&lt;br&gt;" style="sketch=0;html=1;dashed=0;whitespace=wrap;fillColor=#2875E2;strokeColor=#ffffff;points=[[0.005,0.63,0],[0.1,0.2,0],[0.9,0.2,0],[0.5,0,0],[0.995,0.63,0],[0.72,0.99,0],[0.5,1,0],[0.28,0.99,0]];verticalLabelPosition=bottom;align=center;verticalAlign=top;shape=mxgraph.kubernetes.icon;prIcon=api" parent="1" vertex="1">
          <mxGeometry x="945" y="350" width="50" height="48" as="geometry" />
        </mxCell>
        <mxCell id="T0y2XguxjQJqHuOQxVgw-23" value="Dead Letter" style="sketch=0;points=[[0,0,0],[0.25,0,0],[0.5,0,0],[0.75,0,0],[1,0,0],[0,1,0],[0.25,1,0],[0.5,1,0],[0.75,1,0],[1,1,0],[0,0.25,0],[0,0.5,0],[0,0.75,0],[1,0.25,0],[1,0.5,0],[1,0.75,0]];outlineConnect=0;fontColor=#232F3E;gradientColor=#945DF2;gradientDirection=north;fillColor=#5A30B5;strokeColor=#ffffff;dashed=0;verticalLabelPosition=bottom;verticalAlign=top;align=center;html=1;fontSize=12;fontStyle=0;aspect=fixed;shape=mxgraph.aws4.resourceIcon;resIcon=mxgraph.aws4.managed_streaming_for_kafka;" parent="1" vertex="1">
          <mxGeometry x="1180" y="398" width="78" height="78" as="geometry" />
        </mxCell>
        <mxCell id="T0y2XguxjQJqHuOQxVgw-25" value="Big Data" style="sketch=0;points=[[0,0,0],[0.25,0,0],[0.5,0,0],[0.75,0,0],[1,0,0],[0,1,0],[0.25,1,0],[0.5,1,0],[0.75,1,0],[1,1,0],[0,0.25,0],[0,0.5,0],[0,0.75,0],[1,0.25,0],[1,0.5,0],[1,0.75,0]];outlineConnect=0;fontColor=#232F3E;gradientColor=#945DF2;gradientDirection=north;fillColor=#5A30B5;strokeColor=#ffffff;dashed=0;verticalLabelPosition=bottom;verticalAlign=top;align=center;html=1;fontSize=12;fontStyle=0;aspect=fixed;shape=mxgraph.aws4.resourceIcon;resIcon=mxgraph.aws4.managed_streaming_for_kafka;" parent="1" vertex="1">
          <mxGeometry x="1670" y="649.5" width="78" height="78" as="geometry" />
        </mxCell>
        <mxCell id="T0y2XguxjQJqHuOQxVgw-27" value="Big Data" style="sketch=0;points=[[0,0,0],[0.25,0,0],[0.5,0,0],[0.75,0,0],[1,0,0],[0,1,0],[0.25,1,0],[0.5,1,0],[0.75,1,0],[1,1,0],[0,0.25,0],[0,0.5,0],[0,0.75,0],[1,0.25,0],[1,0.5,0],[1,0.75,0]];outlineConnect=0;fontColor=#232F3E;gradientColor=#945DF2;gradientDirection=north;fillColor=#5A30B5;strokeColor=#ffffff;dashed=0;verticalLabelPosition=bottom;verticalAlign=top;align=center;html=1;fontSize=12;fontStyle=0;aspect=fixed;shape=mxgraph.aws4.resourceIcon;resIcon=mxgraph.aws4.managed_streaming_for_kafka;" parent="1" vertex="1">
          <mxGeometry x="860" y="20" width="78" height="78" as="geometry" />
        </mxCell>
        <mxCell id="VQTUx2iocI8o-VVZl_k7-1" value="Dead Letter" style="sketch=0;points=[[0,0,0],[0.25,0,0],[0.5,0,0],[0.75,0,0],[1,0,0],[0,1,0],[0.25,1,0],[0.5,1,0],[0.75,1,0],[1,1,0],[0,0.25,0],[0,0.5,0],[0,0.75,0],[1,0.25,0],[1,0.5,0],[1,0.75,0]];outlineConnect=0;fontColor=#232F3E;gradientColor=#945DF2;gradientDirection=north;fillColor=#5A30B5;strokeColor=#ffffff;dashed=0;verticalLabelPosition=bottom;verticalAlign=top;align=center;html=1;fontSize=12;fontStyle=0;aspect=fixed;shape=mxgraph.aws4.resourceIcon;resIcon=mxgraph.aws4.managed_streaming_for_kafka;" parent="1" vertex="1">
          <mxGeometry x="1040" y="20" width="78" height="78" as="geometry" />
        </mxCell>
        <mxCell id="VQTUx2iocI8o-VVZl_k7-5" style="edgeStyle=orthogonalEdgeStyle;rounded=0;orthogonalLoop=1;jettySize=auto;html=1;" parent="1" source="VQTUx2iocI8o-VVZl_k7-3" target="T0y2XguxjQJqHuOQxVgw-5" edge="1">
          <mxGeometry relative="1" as="geometry" />
        </mxCell>
        <mxCell id="VQTUx2iocI8o-VVZl_k7-3" value="atualização pagamento" style="sketch=0;points=[[0,0,0],[0.25,0,0],[0.5,0,0],[0.75,0,0],[1,0,0],[0,1,0],[0.25,1,0],[0.5,1,0],[0.75,1,0],[1,1,0],[0,0.25,0],[0,0.5,0],[0,0.75,0],[1,0.25,0],[1,0.5,0],[1,0.75,0]];outlineConnect=0;fontColor=#232F3E;gradientColor=#945DF2;gradientDirection=north;fillColor=#5A30B5;strokeColor=#ffffff;dashed=0;verticalLabelPosition=bottom;verticalAlign=top;align=center;html=1;fontSize=12;fontStyle=0;aspect=fixed;shape=mxgraph.aws4.resourceIcon;resIcon=mxgraph.aws4.managed_streaming_for_kafka;" parent="1" vertex="1">
          <mxGeometry x="1180" y="703.5" width="78" height="78" as="geometry" />
        </mxCell>
      </root>
    </mxGraphModel>
  </diagram>
</mxfile>
